<svg xmlns="http://www.w3.org/2000/svg" viewBox="0 0 1500 2700" font-family="-apple-system, 'SF Pro Display', 'Inter', 'Helvetica Neue', Arial, sans-serif">
  <rect width="1500" height="2700" fill="#050507"/>

  <text x="750" y="50" fill="#fff" font-size="24" text-anchor="middle" letter-spacing="3" font-weight="300">BENTO SPATIAL · ОФИСНЫЙ AI-ХАБ · ТРАНСПОРТ И ДОСТАВКА</text>
  <text x="750" y="80" fill="#666" font-size="13" text-anchor="middle">модульные цветные карточки · глубина · карты внутри Bento</text>

  <!-- ===== Shared defs ===== -->
  <defs>
    <!-- map background pattern -->
    <pattern id="mapgrid" x="0" y="0" width="20" height="20" patternUnits="userSpaceOnUse">
      <path d="M 20 0 L 0 0 0 20" fill="none" stroke="#1a1f28" stroke-width="0.5"/>
    </pattern>

    <!-- Gradients -->
    <linearGradient id="bg-time" x1="0" y1="0" x2="1" y2="1">
      <stop offset="0%" stop-color="#1f2937"/>
      <stop offset="100%" stop-color="#0f172a"/>
    </linearGradient>
    <linearGradient id="bg-yellow" x1="0" y1="0" x2="1" y2="1">
      <stop offset="0%" stop-color="#fbbf24"/>
      <stop offset="100%" stop-color="#d97706"/>
    </linearGradient>
    <linearGradient id="bg-orange" x1="0" y1="0" x2="1" y2="1">
      <stop offset="0%" stop-color="#fb923c"/>
      <stop offset="100%" stop-color="#c2410c"/>
    </linearGradient>
    <linearGradient id="bg-green" x1="0" y1="0" x2="1" y2="1">
      <stop offset="0%" stop-color="#34d399"/>
      <stop offset="100%" stop-color="#047857"/>
    </linearGradient>
    <linearGradient id="bg-blue" x1="0" y1="0" x2="1" y2="1">
      <stop offset="0%" stop-color="#60a5fa"/>
      <stop offset="100%" stop-color="#1e40af"/>
    </linearGradient>
    <linearGradient id="bg-purple" x1="0" y1="0" x2="1" y2="1">
      <stop offset="0%" stop-color="#a78bfa"/>
      <stop offset="100%" stop-color="#5b21b6"/>
    </linearGradient>
    <linearGradient id="bg-pink" x1="0" y1="0" x2="1" y2="1">
      <stop offset="0%" stop-color="#f472b6"/>
      <stop offset="100%" stop-color="#9d174d"/>
    </linearGradient>
    <linearGradient id="bg-cyan" x1="0" y1="0" x2="1" y2="1">
      <stop offset="0%" stop-color="#22d3ee"/>
      <stop offset="100%" stop-color="#0e7490"/>
    </linearGradient>
    <linearGradient id="bg-red" x1="0" y1="0" x2="1" y2="1">
      <stop offset="0%" stop-color="#fb7185"/>
      <stop offset="100%" stop-color="#9f1239"/>
    </linearGradient>
  </defs>

  <!-- ╔═════════════════════════════ EXAMPLE 1: ТАКСИ ЕДЕТ ═════════════════════════════╗ -->
  <text x="80" y="160" fill="#fbbf24" font-size="15" letter-spacing="3" font-weight="600">▸ ТАКСИ К ОФИСУ</text>

  <g transform="translate(80,190)">
    <text x="320" y="-12" fill="#888" font-size="13">Большая карта + bento-плитки с деталями</text>

    <circle cx="320" cy="320" r="318" fill="#0a0a0a" stroke="#15151c" stroke-width="3"/>

    <defs>
      <clipPath id="taxi-clip"><circle cx="320" cy="320" r="316"/></clipPath>
    </defs>

    <g clip-path="url(#taxi-clip)">
      <!-- ── MAP BIG TILE (top half) ── -->
      <rect x="40" y="60" width="560" height="280" rx="32" fill="#0e131a" stroke="#1a2030" stroke-width="1"/>
      <rect x="40" y="60" width="560" height="280" rx="32" fill="url(#mapgrid)"/>

      <!-- streets -->
      <g stroke="#2a3245" stroke-width="2.5" fill="none" stroke-linecap="round">
        <path d="M 50 150 L 590 200"/>
        <path d="M 50 240 L 590 230"/>
        <path d="M 150 60 L 250 340"/>
        <path d="M 380 60 L 320 340"/>
        <path d="M 480 80 L 530 340"/>
      </g>

      <!-- river curve -->
      <path d="M 40 300 Q 200 270 350 295 T 600 280" stroke="#1e3a52" stroke-width="14" fill="none" opacity="0.6"/>

      <!-- route -->
      <path d="M 100 280 Q 200 220 290 200 T 470 130" stroke="#fbbf24" stroke-width="5" fill="none" stroke-linecap="round"/>

      <!-- driver position (current) -->
      <circle cx="290" cy="200" r="22" fill="#fbbf24" stroke="#000" stroke-width="4"/>
      <text x="290" y="208" fill="#000" font-size="20" text-anchor="middle">🚗</text>
      <!-- pulse halo around car -->
      <circle cx="290" cy="200" r="32" fill="none" stroke="#fbbf24" stroke-width="2" opacity="0.5"/>
      <circle cx="290" cy="200" r="44" fill="none" stroke="#fbbf24" stroke-width="1" opacity="0.25"/>

      <!-- destination -->
      <g transform="translate(470,130)">
        <circle r="14" fill="#34d399"/>
        <text y="5" fill="#000" font-size="14" text-anchor="middle" font-weight="600">●</text>
        <text x="20" y="-4" fill="#34d399" font-size="11" font-weight="600">офис</text>
      </g>

      <!-- start -->
      <circle cx="100" cy="280" r="8" fill="#888"/>

      <!-- ETA pill on map -->
      <rect x="220" y="80" width="180" height="46" rx="23" fill="#0a0a0a" fill-opacity="0.85" stroke="#fbbf24" stroke-width="1.5"/>
      <text x="310" y="110" fill="#fbbf24" font-size="22" font-weight="600" text-anchor="middle">7 мин · 2.3 км</text>

      <!-- ── BENTO ROW: 3 CARDS ── -->
      <!-- Driver card -->
      <rect x="40" y="360" width="180" height="160" rx="28" fill="url(#bg-yellow)"/>
      <text x="60" y="395" fill="#fff" fill-opacity="0.85" font-size="11" letter-spacing="2" font-weight="600">ВОДИТЕЛЬ</text>
      <circle cx="80" cy="445" r="22" fill="#fff" fill-opacity="0.3"/>
      <text x="80" y="453" fill="#fff" font-size="22" text-anchor="middle" font-weight="700">М</text>
      <text x="115" y="442" fill="#fff" font-size="15" font-weight="600">Магомед</text>
      <text x="115" y="462" fill="#fff" fill-opacity="0.8" font-size="11">★ 4.92 · 6 лет</text>
      <text x="60" y="500" fill="#fff" fill-opacity="0.7" font-size="11">+7 ••• 47 25</text>

      <!-- Car card -->
      <rect x="230" y="360" width="180" height="160" rx="28" fill="url(#bg-time)" stroke="#2a3245" stroke-width="1"/>
      <text x="250" y="395" fill="#9ca3af" font-size="11" letter-spacing="2" font-weight="600">МАШИНА</text>
      <text x="250" y="440" fill="#fff" font-size="20" font-weight="600">Hyundai</text>
      <text x="250" y="462" fill="#fff" font-size="20" font-weight="600">Solaris</text>
      <text x="250" y="485" fill="#9ca3af" font-size="11">серый · K847МР</text>
      <rect x="250" y="498" width="50" height="20" rx="6" fill="#fbbf24"/>
      <text x="275" y="513" fill="#000" font-size="11" font-weight="700" text-anchor="middle">комфорт</text>

      <!-- Price card -->
      <rect x="420" y="360" width="180" height="160" rx="28" fill="url(#bg-green)"/>
      <text x="440" y="395" fill="#fff" fill-opacity="0.85" font-size="11" letter-spacing="2" font-weight="600">К ОПЛАТЕ</text>
      <text x="440" y="455" fill="#fff" font-size="36" font-weight="700">347 ₽</text>
      <text x="440" y="480" fill="#fff" fill-opacity="0.85" font-size="12">с карты ••• 4321</text>
      <text x="440" y="503" fill="#fff" fill-opacity="0.7" font-size="11">→ скажи «отмена»</text>

      <!-- ── BOTTOM: status pill ── -->
      <rect x="40" y="540" width="560" height="48" rx="24" fill="#1a2030"/>
      <circle cx="68" cy="564" r="6" fill="#34d399">
      </circle>
      <text x="90" y="570" fill="#34d399" font-size="12" font-weight="600" letter-spacing="1">ВОДИТЕЛЬ В ПУТИ</text>
      <text x="580" y="570" fill="#9ca3af" font-size="12" text-anchor="end">подаст к подъезду 3</text>
    </g>
  </g>


  <!-- ╔═════════════════════════════ EXAMPLE 2: ЕДА ЕДЕТ ═════════════════════════════╗ -->
  <text x="80" y="900" fill="#fb923c" font-size="15" letter-spacing="3" font-weight="600">▸ ЯНДЕКС ЕДА — КУРЬЕР В ПУТИ</text>

  <g transform="translate(80,930)">
    <text x="320" y="-12" fill="#888" font-size="13">Карта по дуге сверху, плитки заказа снизу</text>

    <circle cx="320" cy="320" r="318" fill="#0a0a0a" stroke="#15151c" stroke-width="3"/>

    <defs>
      <clipPath id="food-clip"><circle cx="320" cy="320" r="316"/></clipPath>
    </defs>

    <g clip-path="url(#food-clip)">
      <!-- ── MAP with route ── -->
      <rect x="40" y="60" width="560" height="240" rx="32" fill="#0e131a" stroke="#1a2030" stroke-width="1"/>
      <rect x="40" y="60" width="560" height="240" rx="32" fill="url(#mapgrid)"/>

      <g stroke="#2a3245" stroke-width="2.5" fill="none" stroke-linecap="round">
        <path d="M 50 130 L 590 170"/>
        <path d="M 50 220 L 590 200"/>
        <path d="M 200 60 L 280 300"/>
        <path d="M 420 60 L 360 300"/>
      </g>

      <!-- route -->
      <path d="M 530 230 Q 400 180 300 160 T 110 110" stroke="#fb923c" stroke-width="5" fill="none" stroke-linecap="round" stroke-dasharray="0"/>

      <!-- restaurant -->
      <circle cx="530" cy="230" r="14" fill="#fb923c" stroke="#0a0a0a" stroke-width="3"/>
      <text x="530" y="237" fill="#fff" font-size="13" text-anchor="middle">🍜</text>

      <!-- courier (current) -->
      <circle cx="300" cy="160" r="22" fill="#fb923c" stroke="#000" stroke-width="4"/>
      <text x="300" y="168" fill="#000" font-size="20" text-anchor="middle">🛵</text>
      <circle cx="300" cy="160" r="32" fill="none" stroke="#fb923c" stroke-width="2" opacity="0.5"/>

      <!-- you/office -->
      <circle cx="110" cy="110" r="14" fill="#22d3ee" stroke="#0a0a0a" stroke-width="3"/>
      <text x="125" y="95" fill="#22d3ee" font-size="11" font-weight="600">офис</text>

      <!-- ETA chip -->
      <rect x="220" y="80" width="200" height="46" rx="23" fill="#0a0a0a" fill-opacity="0.85" stroke="#fb923c" stroke-width="1.5"/>
      <text x="320" y="110" fill="#fb923c" font-size="22" font-weight="600" text-anchor="middle">12 мин</text>

      <!-- ── BENTO ROW: courier + restaurant + items ── -->
      <!-- Courier -->
      <rect x="40" y="320" width="180" height="120" rx="28" fill="url(#bg-orange)"/>
      <text x="60" y="350" fill="#fff" fill-opacity="0.85" font-size="11" letter-spacing="2" font-weight="600">КУРЬЕР</text>
      <text x="60" y="385" fill="#fff" font-size="20" font-weight="600">Магомед</text>
      <text x="60" y="408" fill="#fff" fill-opacity="0.85" font-size="12">★ 4.96</text>
      <text x="60" y="427" fill="#fff" fill-opacity="0.7" font-size="11">+7 ••• 47 на связи</text>

      <!-- Restaurant -->
      <rect x="230" y="320" width="180" height="120" rx="28" fill="url(#bg-red)"/>
      <text x="250" y="350" fill="#fff" fill-opacity="0.85" font-size="11" letter-spacing="2" font-weight="600">РЕСТОРАН</text>
      <text x="250" y="385" fill="#fff" font-size="17" font-weight="600">Пельменная</text>
      <text x="250" y="405" fill="#fff" font-size="17" font-weight="600">на Тверской</text>
      <text x="250" y="427" fill="#fff" fill-opacity="0.7" font-size="11">★ 4.7 · 1.8 км</text>

      <!-- Total -->
      <rect x="420" y="320" width="180" height="120" rx="28" fill="url(#bg-green)"/>
      <text x="440" y="350" fill="#fff" fill-opacity="0.85" font-size="11" letter-spacing="2" font-weight="600">ИТОГО</text>
      <text x="440" y="395" fill="#fff" font-size="34" font-weight="700">1 240 ₽</text>
      <text x="440" y="421" fill="#fff" fill-opacity="0.8" font-size="11">5 позиций</text>

      <!-- ── Items bento (compact list-card) ── -->
      <rect x="40" y="460" width="560" height="130" rx="28" fill="#0e131a" stroke="#1a2030" stroke-width="1"/>
      <text x="60" y="490" fill="#9ca3af" font-size="11" letter-spacing="2" font-weight="600">СОСТАВ ЗАКАЗА</text>

      <g font-size="13" font-weight="500">
        <text x="60" y="520" fill="#fff">Борщ с говядиной</text>
        <text x="580" y="520" fill="#9ca3af" text-anchor="end">×1</text>

        <text x="60" y="544" fill="#fff">Пельмени домашние</text>
        <text x="580" y="544" fill="#9ca3af" text-anchor="end">×2</text>

        <text x="60" y="568" fill="#fff">Хлеб + морс</text>
        <text x="580" y="568" fill="#9ca3af" text-anchor="end">×2</text>
      </g>
    </g>
  </g>


  <!-- ╔═════════════════════════════ EXAMPLE 3: НАВИГАЦИЯ В ДОРОГЕ ═════════════════════════════╗ -->
  <text x="80" y="1670" fill="#22d3ee" font-size="15" letter-spacing="3" font-weight="600">▸ МАРШРУТ ОТ ОФИСА К КЛИЕНТУ</text>

  <g transform="translate(80,1700)">
    <text x="320" y="-12" fill="#888" font-size="13">Большая карта с пробками и плитки расстояния</text>

    <circle cx="320" cy="320" r="318" fill="#0a0a0a" stroke="#15151c" stroke-width="3"/>

    <defs>
      <clipPath id="nav-clip"><circle cx="320" cy="320" r="316"/></clipPath>
    </defs>

    <g clip-path="url(#nav-clip)">
      <!-- Big map -->
      <rect x="40" y="60" width="560" height="380" rx="32" fill="#0e131a" stroke="#1a2030" stroke-width="1"/>
      <rect x="40" y="60" width="560" height="380" rx="32" fill="url(#mapgrid)"/>

      <!-- District blocks -->
      <g fill="#131922" stroke="#1f2a3d" stroke-width="1">
        <rect x="80" y="100" width="120" height="80" rx="6"/>
        <rect x="230" y="100" width="100" height="60" rx="6"/>
        <rect x="370" y="100" width="180" height="80" rx="6"/>
        <rect x="80" y="220" width="150" height="100" rx="6"/>
        <rect x="260" y="200" width="100" height="120" rx="6"/>
        <rect x="400" y="220" width="160" height="80" rx="6"/>
        <rect x="80" y="350" width="200" height="70" rx="6"/>
        <rect x="320" y="340" width="130" height="80" rx="6"/>
        <rect x="480" y="340" width="80" height="80" rx="6"/>
      </g>

      <!-- streets between blocks (implicit gaps) -->
      <g stroke="#2a3245" stroke-width="3" fill="none" stroke-linecap="round">
        <path d="M 60 190 L 590 190"/>
        <path d="M 60 330 L 590 330"/>
        <path d="M 215 80 L 215 430"/>
        <path d="M 385 80 L 385 430"/>
      </g>

      <!-- Traffic-colored route -->
      <g stroke-width="7" fill="none" stroke-linecap="round">
        <!-- start to mid: green (free) -->
        <path d="M 130 380 L 130 340 L 215 340 L 215 190" stroke="#34d399"/>
        <!-- mid: yellow (moderate) -->
        <path d="M 215 190 L 385 190" stroke="#fbbf24"/>
        <!-- end: red (jam) -->
        <path d="M 385 190 L 385 140 L 480 140" stroke="#ef4444"/>
      </g>

      <!-- Start -->
      <circle cx="130" cy="380" r="11" fill="#22d3ee" stroke="#000" stroke-width="3"/>
      <text x="145" y="395" fill="#22d3ee" font-size="11" font-weight="600">офис</text>

      <!-- End -->
      <circle cx="480" cy="140" r="14" fill="#ef4444" stroke="#000" stroke-width="3"/>
      <text x="480" y="146" fill="#fff" font-size="13" text-anchor="middle" font-weight="700">●</text>
      <text x="498" y="135" fill="#ef4444" font-size="11" font-weight="600">клиент</text>

      <!-- ETA huge -->
      <rect x="240" y="240" width="160" height="58" rx="29" fill="#0a0a0a" fill-opacity="0.95" stroke="#fff" stroke-width="1" stroke-opacity="0.2"/>
      <text x="320" y="278" fill="#fff" font-size="22" font-weight="700" text-anchor="middle">28 мин · 7.4 км</text>

      <!-- ── BENTO 3 small cards ── -->
      <rect x="40" y="460" width="180" height="130" rx="28" fill="url(#bg-cyan)"/>
      <text x="60" y="490" fill="#fff" fill-opacity="0.85" font-size="11" letter-spacing="2" font-weight="600">ПРИБЫТИЕ</text>
      <text x="60" y="535" fill="#fff" font-size="30" font-weight="700">15:48</text>
      <text x="60" y="560" fill="#fff" fill-opacity="0.8" font-size="11">сейчас 15:20</text>
      <text x="60" y="578" fill="#fff" fill-opacity="0.7" font-size="11">встреча в 16:00 — успеешь</text>

      <rect x="230" y="460" width="180" height="130" rx="28" fill="url(#bg-yellow)"/>
      <text x="250" y="490" fill="#fff" fill-opacity="0.85" font-size="11" letter-spacing="2" font-weight="600">ПРОБКИ</text>
      <text x="250" y="540" fill="#fff" font-size="34" font-weight="700">5</text>
      <text x="290" y="540" fill="#fff" font-size="22" font-weight="500">баллов</text>
      <text x="250" y="568" fill="#fff" fill-opacity="0.8" font-size="11">умеренные</text>
      <text x="250" y="585" fill="#fff" fill-opacity="0.7" font-size="11">красная зона: Садовое</text>

      <rect x="420" y="460" width="180" height="130" rx="28" fill="url(#bg-purple)"/>
      <text x="440" y="490" fill="#fff" fill-opacity="0.85" font-size="11" letter-spacing="2" font-weight="600">ВАРИАНТЫ</text>
      <text x="440" y="520" fill="#fff" font-size="13">🚗 за рулём · 28 м</text>
      <text x="440" y="544" fill="#fff" fill-opacity="0.85" font-size="13">🚖 такси · 18 м · 420 ₽</text>
      <text x="440" y="568" fill="#fff" fill-opacity="0.7" font-size="13">🚇 метро · 35 м</text>
      <text x="440" y="585" fill="#fff" fill-opacity="0.7" font-size="11">скажи «вызови такси»</text>
    </g>
  </g>


  <!-- ╔═════════════════════════════ EXAMPLE 4: МУЛЬТИ-ДЭШБОРД (всё в Bento) ═════════════════════════════╗ -->
  <text x="80" y="2440" fill="#a78bfa" font-size="15" letter-spacing="3" font-weight="600">▸ ДОМАШНИЙ ЭКРАН — ВСЁ СРАЗУ В BENTO</text>

  <text x="80" y="2470" fill="#666" font-size="13">плитки разного размера, цвет по типу данных, глаз сразу находит нужное</text>

  <g transform="translate(800,200)">

    <!-- ── Home dashboard ── -->
    <circle cx="320" cy="320" r="318" fill="#0a0a0a" stroke="#15151c" stroke-width="3"/>

    <defs>
      <clipPath id="home-clip"><circle cx="320" cy="320" r="316"/></clipPath>
    </defs>

    <g clip-path="url(#home-clip)">
      <!-- Time large -->
      <rect x="40" y="50" width="260" height="160" rx="32" fill="url(#bg-time)" stroke="#2a3245" stroke-width="1"/>
      <text x="60" y="85" fill="#9ca3af" font-size="11" letter-spacing="2" font-weight="600">ВТ · 17 МАЯ</text>
      <text x="60" y="170" fill="#fff" font-size="76" font-weight="700" letter-spacing="-3">07:32</text>

      <!-- Weather small -->
      <rect x="310" y="50" width="130" height="160" rx="28" fill="url(#bg-orange)"/>
      <text x="325" y="80" fill="#fff" fill-opacity="0.85" font-size="11" letter-spacing="2" font-weight="600">МОСКВА</text>
      <circle cx="375" cy="115" r="14" fill="#fff" opacity="0.95"/>
      <text x="325" y="180" fill="#fff" font-size="44" font-weight="700">+18°</text>
      <text x="325" y="200" fill="#fff" fill-opacity="0.8" font-size="11">ясно</text>

      <!-- Meetings -->
      <rect x="450" y="50" width="160" height="160" rx="28" fill="url(#bg-green)"/>
      <text x="465" y="80" fill="#fff" fill-opacity="0.85" font-size="11" letter-spacing="2" font-weight="600">ВСТРЕЧИ</text>
      <text x="465" y="135" fill="#fff" font-size="56" font-weight="700">3</text>
      <text x="465" y="170" fill="#fff" fill-opacity="0.9" font-size="13">11:00 · Иванов</text>
      <text x="465" y="190" fill="#fff" fill-opacity="0.7" font-size="11">15:00 · ВТБ</text>

      <!-- BG status (banking) -->
      <rect x="40" y="220" width="190" height="170" rx="32" fill="url(#bg-yellow)"/>
      <text x="60" y="250" fill="#fff" fill-opacity="0.85" font-size="11" letter-spacing="2" font-weight="600">ЗАЯВКИ</text>
      <text x="60" y="305" fill="#fff" font-size="56" font-weight="700">3</text>
      <text x="60" y="335" fill="#fff" fill-opacity="0.9" font-size="13">в работе</text>
      <text x="60" y="360" fill="#fff" fill-opacity="0.75" font-size="11">1 горит · 2 в банке</text>
      <text x="60" y="378" fill="#fff" fill-opacity="0.7" font-size="11">скажи «по горящей»</text>

      <!-- Tenders -->
      <rect x="240" y="220" width="190" height="170" rx="32" fill="url(#bg-purple)"/>
      <text x="260" y="250" fill="#fff" fill-opacity="0.85" font-size="11" letter-spacing="2" font-weight="600">ТЕНДЕРЫ</text>
      <text x="260" y="305" fill="#fff" font-size="56" font-weight="700">7</text>
      <text x="260" y="335" fill="#fff" fill-opacity="0.9" font-size="13">новых</text>
      <text x="260" y="360" fill="#fff" fill-opacity="0.75" font-size="11">2 жирных, до 12 млн</text>
      <text x="260" y="378" fill="#fff" fill-opacity="0.7" font-size="11">скажи «брифинг»</text>

      <!-- Money (revenue this month) -->
      <rect x="440" y="220" width="170" height="170" rx="32" fill="url(#bg-pink)"/>
      <text x="460" y="250" fill="#fff" fill-opacity="0.85" font-size="11" letter-spacing="2" font-weight="600">МАЙ ↑</text>
      <text x="460" y="305" fill="#fff" font-size="26" font-weight="700">487 200 ₽</text>
      <text x="460" y="330" fill="#fff" fill-opacity="0.9" font-size="12">за 17 дней</text>
      <text x="460" y="355" fill="#fff" fill-opacity="0.75" font-size="11">+18% к маю-25</text>
      <text x="460" y="378" fill="#fff" fill-opacity="0.7" font-size="11">прогноз ~890т</text>

      <!-- Music (compact) -->
      <rect x="40" y="400" width="280" height="110" rx="28" fill="url(#bg-cyan)"/>
      <circle cx="80" cy="455" r="24" fill="#fff" fill-opacity="0.3"/>
      <text x="80" y="465" fill="#fff" font-size="20" text-anchor="middle">♫</text>
      <text x="120" y="445" fill="#fff" font-size="14" font-weight="600">Lo-fi for focus</text>
      <text x="120" y="465" fill="#fff" fill-opacity="0.8" font-size="11">Chillhop Records</text>
      <rect x="120" y="478" width="160" height="3" rx="2" fill="#fff" fill-opacity="0.3"/>
      <rect x="120" y="478" width="68" height="3" rx="2" fill="#fff"/>
      <text x="120" y="500" fill="#fff" fill-opacity="0.7" font-size="10">1:23 / 3:14</text>

      <!-- AI orb -->
      <rect x="330" y="400" width="280" height="110" rx="28" fill="url(#bg-time)" stroke="#2a3245" stroke-width="1"/>

      <defs>
        <radialGradient id="ai-orb-small">
          <stop offset="0%" stop-color="#fff"/>
          <stop offset="50%" stop-color="#a78bfa"/>
          <stop offset="100%" stop-color="#5b21b6" stop-opacity="0"/>
        </radialGradient>
      </defs>
      <circle cx="380" cy="455" r="32" fill="url(#ai-orb-small)"/>
      <circle cx="380" cy="455" r="14" fill="#fff" fill-opacity="0.9"/>
      <text x="425" y="445" fill="#fff" font-size="13" font-weight="600">я слушаю</text>
      <text x="425" y="465" fill="#9ca3af" font-size="11">скажи как меня зовут</text>
      <text x="425" y="486" fill="#9ca3af" font-size="11">или «брифинг», «погода»</text>

      <!-- Personal: budget -->
      <rect x="40" y="520" width="190" height="110" rx="28" fill="url(#bg-blue)"/>
      <text x="60" y="550" fill="#fff" fill-opacity="0.85" font-size="11" letter-spacing="2" font-weight="600">БЮДЖЕТ МАЯ</text>
      <text x="60" y="585" fill="#fff" font-size="22" font-weight="700">47 / 80 т</text>
      <rect x="60" y="600" width="150" height="4" rx="2" fill="#fff" fill-opacity="0.25"/>
      <rect x="60" y="600" width="89" height="4" rx="2" fill="#fff"/>
      <text x="60" y="620" fill="#fff" fill-opacity="0.8" font-size="11">59% потрачено</text>

      <!-- Family location card -->
      <rect x="240" y="520" width="190" height="110" rx="28" fill="url(#bg-purple)"/>
      <text x="260" y="550" fill="#fff" fill-opacity="0.85" font-size="11" letter-spacing="2" font-weight="600">СЕМЬЯ</text>
      <text x="260" y="575" fill="#fff" font-size="11">🟢 Аня — школа</text>
      <text x="260" y="591" fill="#fff" font-size="11">🟣 Маша — кафе</text>
      <text x="260" y="607" fill="#fff" font-size="11">🔵 мама — дома</text>
      <text x="260" y="625" fill="#fff" fill-opacity="0.7" font-size="10">все в порядке</text>

      <!-- Birthday alert -->
      <rect x="440" y="520" width="170" height="110" rx="28" fill="url(#bg-red)"/>
      <text x="460" y="550" fill="#fff" fill-opacity="0.85" font-size="11" letter-spacing="2" font-weight="600">ЧЕРЕЗ 3 ДНЯ</text>
      <text x="460" y="585" fill="#fff" font-size="22" font-weight="700">маме 65</text>
      <text x="460" y="608" fill="#fff" fill-opacity="0.8" font-size="11">юбилей · подарок?</text>
      <text x="460" y="623" fill="#fff" fill-opacity="0.7" font-size="10">скажи «варианты»</text>
    </g>
  </g>

  <!-- ===== FOOTER ===== -->
  <g transform="translate(80, 2580)">
    <text x="0" y="0" fill="#fff" font-size="16" font-weight="500">Логика Bento Spatial для этого хаба:</text>
    <text x="0" y="25" fill="#aaa" font-size="12">• Размер плитки = важность. Время и карта — самые большие. Деньги и встречи — средние. Музыка, бюджет, семья — компактные.</text>
    <text x="0" y="45" fill="#aaa" font-size="12">• Цвет = смысл. Янтарь — деньги/важное. Зелёный — статус ОК. Красный — срочное (день рождения!). Синий — нейтральная инфа.</text>
    <text x="0" y="65" fill="#aaa" font-size="12">• Карта всегда занимает ≥40% круга на сценариях «в пути». Это главное, остальное вокруг.</text>
    <text x="0" y="85" fill="#aaa" font-size="12">• Внутри каждой плитки: маленькая метка-заголовок сверху + большое число/имя в середине + подсказка снизу.</text>
    <text x="0" y="105" fill="#aaa" font-size="12">• На каждой карточке внизу — «скажи ...» — намёк на голосовую команду, открывающую детали.</text>
  </g>
</svg>
