<svg xmlns="http://www.w3.org/2000/svg" viewBox="0 0 1500 2400" font-family="-apple-system, 'SF Pro Display', 'Helvetica Neue', Arial, sans-serif">
  <rect width="1500" height="2400" fill="#0a0a0a"/>

  <text x="750" y="50" fill="#888" font-size="22" text-anchor="middle" letter-spacing="2">ОФИСНЫЙ AI-ХАБ · ГАЛЕРЕЯ #3 · РАБОЧИЕ ИНСТРУМЕНТЫ</text>
  <text x="750" y="78" fill="#555" font-size="13" text-anchor="middle">12 экранов под банковские гарантии, клиентов, тендеры, финансы</text>

  <!-- ╔═════════════════════════════ RANGE 1: КЛИЕНТЫ И ЛИДЫ ═════════════════════════════╗ -->
  <text x="40" y="140" fill="#f4b942" font-size="14" letter-spacing="3">▸ КЛИЕНТЫ И ЛИДЫ</text>

  <!-- 1. СКОРИНГ ЛИДА -->
  <g transform="translate(80,170)">
    <text x="180" y="-10" fill="#888" font-size="14" text-anchor="middle">Скоринг нового лида</text>
    <text x="180" y="6" fill="#555" font-size="11" text-anchor="middle">вероятность одобрения БГ</text>

    <circle cx="180" cy="200" r="180" fill="#000" stroke="#1a1a1a" stroke-width="2"/>

    <!-- Big score ring -->
    <circle cx="180" cy="200" r="115" fill="none" stroke="#222" stroke-width="10"/>
    <circle cx="180" cy="200" r="115" fill="none" stroke="#7ad77a" stroke-width="10"
            stroke-dasharray="610 723" stroke-linecap="round"
            transform="rotate(-90 180 200)"/>

    <text x="180" y="200" fill="#7ad77a" font-size="56" font-weight="200" text-anchor="middle">84</text>
    <text x="180" y="227" fill="#666" font-size="10" text-anchor="middle" letter-spacing="2">ИЗ 100</text>

    <text x="180" y="80" fill="#ffffff" font-size="15" font-weight="500" text-anchor="middle">ООО «Сибсервис»</text>
    <text x="180" y="100" fill="#666" font-size="11" text-anchor="middle">тендер 12 млн · Новосиб</text>

    <!-- Factors -->
    <text x="60" y="305" fill="#7ad77a" font-size="11">+ опыт 5 лет</text>
    <text x="60" y="322" fill="#7ad77a" font-size="11">+ выручка растёт 30%</text>
    <text x="60" y="339" fill="#e74c3c" font-size="11">— просрочки в 2024</text>
    <text x="60" y="356" fill="#7ad77a" font-size="11">+ нет судов</text>
  </g>

  <!-- 2. КАРТОЧКА КЛИЕНТА · ИСТОРИЯ -->
  <g transform="translate(490,170)">
    <text x="180" y="-10" fill="#888" font-size="14" text-anchor="middle">История клиента</text>
    <text x="180" y="6" fill="#555" font-size="11" text-anchor="middle">«покажи историю Ромашки»</text>

    <circle cx="180" cy="200" r="180" fill="#000" stroke="#1a1a1a" stroke-width="2"/>

    <text x="180" y="80" fill="#ffffff" font-size="16" font-weight="500" text-anchor="middle">ООО «Ромашка»</text>
    <text x="180" y="100" fill="#666" font-size="11" text-anchor="middle">клиент с 2023 · 7 БГ</text>

    <!-- Stats row -->
    <text x="105" y="140" fill="#f4b942" font-size="22" font-weight="200" text-anchor="middle">38 млн</text>
    <text x="105" y="156" fill="#666" font-size="10" text-anchor="middle">ОБЪЁМ</text>

    <text x="255" y="140" fill="#f4b942" font-size="22" font-weight="200" text-anchor="middle">820 т</text>
    <text x="255" y="156" fill="#666" font-size="10" text-anchor="middle">КОМИССИЯ</text>

    <!-- Timeline -->
    <line x1="60" y1="185" x2="300" y2="185" stroke="#222" stroke-width="1"/>

    <circle cx="80" cy="215" r="5" fill="#7ad77a"/>
    <text x="95" y="219" fill="#ddd" font-size="11">25.04 · ВТБ · 5 млн · выдана</text>

    <circle cx="80" cy="240" r="5" fill="#7ad77a"/>
    <text x="95" y="244" fill="#ddd" font-size="11">12.03 · Сбер · 3 млн · выдана</text>

    <circle cx="80" cy="265" r="5" fill="#e74c3c"/>
    <text x="95" y="269" fill="#aaa" font-size="11">28.01 · Альфа · 8 млн · отказ</text>

    <circle cx="80" cy="290" r="5" fill="#7ad77a"/>
    <text x="95" y="294" fill="#ddd" font-size="11">15.12 · Сбер · 2 млн · выдана</text>

    <text x="180" y="335" fill="#666" font-size="11" text-anchor="middle">средний срок выдачи: 4 дня</text>
    <text x="180" y="355" fill="#7ad77a" font-size="11" text-anchor="middle">конверсия: 6/7 = 86%</text>
  </g>

  <!-- 3. РЕЕСТР КЛИЕНТОВ -->
  <g transform="translate(900,170)">
    <text x="180" y="-10" fill="#888" font-size="14" text-anchor="middle">Реестр клиентов</text>
    <text x="180" y="6" fill="#555" font-size="11" text-anchor="middle">с горящими статусами</text>

    <circle cx="180" cy="200" r="180" fill="#000" stroke="#1a1a1a" stroke-width="2"/>

    <text x="180" y="80" fill="#666" font-size="11" text-anchor="middle">АКТИВНЫХ КЛИЕНТОВ · 18</text>

    <!-- Filter chips -->
    <rect x="80" y="95" width="60" height="22" rx="11" fill="#f4b942"/>
    <text x="110" y="110" fill="#000" font-size="11" text-anchor="middle" font-weight="600">все</text>

    <rect x="148" y="95" width="60" height="22" rx="11" fill="#1a1a1a" stroke="#333" stroke-width="1"/>
    <text x="178" y="110" fill="#888" font-size="11" text-anchor="middle">горит</text>

    <rect x="216" y="95" width="78" height="22" rx="11" fill="#1a1a1a" stroke="#333" stroke-width="1"/>
    <text x="255" y="110" fill="#888" font-size="11" text-anchor="middle">ожидают</text>

    <line x1="50" y1="135" x2="310" y2="135" stroke="#222" stroke-width="1"/>

    <!-- List items -->
    <g>
      <circle cx="65" cy="158" r="6" fill="#e74c3c"/>
      <text x="80" y="162" fill="#ffffff" font-size="12" font-weight="500">Альфа-Строй</text>
      <text x="295" y="162" fill="#e74c3c" font-size="11" text-anchor="end">3 дня</text>
      <text x="80" y="176" fill="#666" font-size="10">ВТБ · ждёт доки</text>
    </g>

    <g>
      <circle cx="65" cy="200" r="6" fill="#f4b942"/>
      <text x="80" y="204" fill="#ffffff" font-size="12" font-weight="500">Ромашка</text>
      <text x="295" y="204" fill="#f4b942" font-size="11" text-anchor="end">сегодня</text>
      <text x="80" y="218" fill="#666" font-size="10">Сбер · в работе</text>
    </g>

    <g>
      <circle cx="65" cy="242" r="6" fill="#7ad77a"/>
      <text x="80" y="246" fill="#ffffff" font-size="12" font-weight="500">Сибсервис</text>
      <text x="295" y="246" fill="#7ad77a" font-size="11" text-anchor="end">ок</text>
      <text x="80" y="260" fill="#666" font-size="10">Альфа · выдана 25.04</text>
    </g>

    <g>
      <circle cx="65" cy="284" r="6" fill="#666"/>
      <text x="80" y="288" fill="#aaa" font-size="12">Лесторг-М</text>
      <text x="295" y="288" fill="#666" font-size="11" text-anchor="end">черновик</text>
      <text x="80" y="302" fill="#666" font-size="10">подбор банка</text>
    </g>

    <text x="180" y="345" fill="#666" font-size="11" text-anchor="middle">скажи «Альфа-Строй» → детали</text>
  </g>


  <!-- ╔═════════════════════════════ RANGE 2: БАНКИ И РАСЧЁТЫ ═════════════════════════════╗ -->
  <text x="40" y="640" fill="#f4b942" font-size="14" letter-spacing="3">▸ БАНКИ И РАСЧЁТЫ</text>

  <!-- 4. СРАВНЕНИЕ БАНКОВ -->
  <g transform="translate(80,670)">
    <text x="180" y="-10" fill="#888" font-size="14" text-anchor="middle">Сравнение банков</text>
    <text x="180" y="6" fill="#555" font-size="11" text-anchor="middle">подбор под клиента</text>

    <circle cx="180" cy="200" r="180" fill="#000" stroke="#1a1a1a" stroke-width="2"/>

    <text x="180" y="80" fill="#666" font-size="11" text-anchor="middle">ИВАНОВ · 7 МЛН · 12 МЕС</text>

    <!-- Bank rows -->
    <g>
      <rect x="50" y="100" width="260" height="58" rx="10" fill="#1a1a1a" stroke="#7ad77a" stroke-width="1"/>
      <text x="65" y="120" fill="#ffffff" font-size="13" font-weight="500">Сбер</text>
      <text x="295" y="120" fill="#7ad77a" font-size="13" font-weight="500" text-anchor="end">✓ подходит</text>
      <text x="65" y="143" fill="#888" font-size="11">2.5% · 175 000 ₽ · 3 дня</text>
    </g>

    <g>
      <rect x="50" y="170" width="260" height="58" rx="10" fill="#1a1a1a" stroke="#7ad77a" stroke-width="1"/>
      <text x="65" y="190" fill="#ffffff" font-size="13" font-weight="500">Альфа</text>
      <text x="295" y="190" fill="#7ad77a" font-size="13" font-weight="500" text-anchor="end">✓ подходит</text>
      <text x="65" y="213" fill="#888" font-size="11">2.8% · 196 000 ₽ · 5 дней</text>
    </g>

    <g>
      <rect x="50" y="240" width="260" height="58" rx="10" fill="#1a1a1a" stroke="#333" stroke-width="1"/>
      <text x="65" y="260" fill="#aaa" font-size="13">ВТБ</text>
      <text x="295" y="260" fill="#e74c3c" font-size="13" text-anchor="end">✗ выручка</text>
      <text x="65" y="283" fill="#666" font-size="11">мин 50 млн, у клиента 28</text>
    </g>

    <text x="180" y="330" fill="#f4b942" font-size="12" text-anchor="middle">рекомендую Сбер</text>
    <text x="180" y="350" fill="#666" font-size="11" text-anchor="middle">меньше комиссия, быстрее срок</text>
  </g>

  <!-- 5. РАСЧЁТ КОМИССИИ -->
  <g transform="translate(490,670)">
    <text x="180" y="-10" fill="#888" font-size="14" text-anchor="middle">Калькулятор комиссии</text>
    <text x="180" y="6" fill="#555" font-size="11" text-anchor="middle">«сколько комиссия 5 млн полгода»</text>

    <circle cx="180" cy="200" r="180" fill="#000" stroke="#1a1a1a" stroke-width="2"/>

    <text x="180" y="80" fill="#666" font-size="11" text-anchor="middle">СБЕР · ИСПОЛНЕНИЯ</text>

    <!-- Input shown -->
    <line x1="80" y1="105" x2="280" y2="105" stroke="#222" stroke-width="1"/>

    <text x="80" y="130" fill="#666" font-size="11">сумма БГ</text>
    <text x="280" y="130" fill="#ffffff" font-size="13" text-anchor="end">5 000 000 ₽</text>

    <text x="80" y="153" fill="#666" font-size="11">срок</text>
    <text x="280" y="153" fill="#ffffff" font-size="13" text-anchor="end">6 мес</text>

    <text x="80" y="176" fill="#666" font-size="11">ставка</text>
    <text x="280" y="176" fill="#ffffff" font-size="13" text-anchor="end">2.5% годовых</text>

    <line x1="80" y1="195" x2="280" y2="195" stroke="#222" stroke-width="1"/>

    <!-- Big result -->
    <text x="180" y="240" fill="#666" font-size="11" text-anchor="middle" letter-spacing="2">КОМИССИЯ БАНКА</text>
    <text x="180" y="280" fill="#ffffff" font-size="36" font-weight="200" text-anchor="middle">62 500 ₽</text>

    <line x1="80" y1="300" x2="280" y2="300" stroke="#222" stroke-width="1"/>

    <!-- Your fee -->
    <text x="180" y="328" fill="#f4b942" font-size="11" text-anchor="middle" letter-spacing="2">ТВОЯ КОМИССИЯ 35%</text>
    <text x="180" y="358" fill="#f4b942" font-size="26" font-weight="300" text-anchor="middle">21 875 ₽</text>
  </g>

  <!-- 6. МАРШРУТ ЗАЯВКИ -->
  <g transform="translate(900,670)">
    <text x="180" y="-10" fill="#888" font-size="14" text-anchor="middle">Маршрут заявки</text>
    <text x="180" y="6" fill="#555" font-size="11" text-anchor="middle">этапы по времени</text>

    <circle cx="180" cy="200" r="180" fill="#000" stroke="#1a1a1a" stroke-width="2"/>

    <text x="180" y="80" fill="#666" font-size="11" text-anchor="middle">ЗАЯВКА #2024/847 · ВТБ</text>

    <!-- Stepper vertical -->
    <line x1="80" y1="120" x2="80" y2="320" stroke="#222" stroke-width="2"/>

    <circle cx="80" cy="120" r="9" fill="#7ad77a"/>
    <text x="75" y="124" fill="#000" font-size="11" text-anchor="middle">✓</text>
    <text x="100" y="118" fill="#ffffff" font-size="12" font-weight="500">Заявка создана</text>
    <text x="100" y="135" fill="#666" font-size="10">14.05 · 10:32</text>

    <circle cx="80" cy="170" r="9" fill="#7ad77a"/>
    <text x="75" y="174" fill="#000" font-size="11" text-anchor="middle">✓</text>
    <text x="100" y="168" fill="#ffffff" font-size="12" font-weight="500">Документы собраны</text>
    <text x="100" y="185" fill="#666" font-size="10">15.05 · 18:14</text>

    <circle cx="80" cy="220" r="9" fill="#7ad77a"/>
    <text x="75" y="224" fill="#000" font-size="11" text-anchor="middle">✓</text>
    <text x="100" y="218" fill="#ffffff" font-size="12" font-weight="500">Отправлено в банк</text>
    <text x="100" y="235" fill="#666" font-size="10">16.05 · 09:00</text>

    <!-- Current step -->
    <circle cx="80" cy="270" r="11" fill="none" stroke="#f4b942" stroke-width="2"/>
    <circle cx="80" cy="270" r="5" fill="#f4b942"/>
    <text x="100" y="268" fill="#f4b942" font-size="12" font-weight="500">Рассматривает банк</text>
    <text x="100" y="285" fill="#666" font-size="10">с 16.05 · 2 рабочих дня</text>

    <circle cx="80" cy="320" r="9" fill="#222" stroke="#333" stroke-width="1"/>
    <text x="100" y="318" fill="#666" font-size="12">Выдача БГ</text>
    <text x="100" y="335" fill="#666" font-size="10">ожидаем ~19.05</text>
  </g>


  <!-- ╔═════════════════════════════ RANGE 3: ДОКУМЕНТЫ И ПЕРЕПИСКА ═════════════════════════════╗ -->
  <text x="40" y="1140" fill="#f4b942" font-size="14" letter-spacing="3">▸ ДОКУМЕНТЫ И ПЕРЕПИСКА</text>

  <!-- 7. ДРАФТ ПИСЬМА В БАНК -->
  <g transform="translate(80,1170)">
    <text x="180" y="-10" fill="#888" font-size="14" text-anchor="middle">Письмо в банк</text>
    <text x="180" y="6" fill="#555" font-size="11" text-anchor="middle">черновик в твоём стиле</text>

    <circle cx="180" cy="200" r="180" fill="#000" stroke="#1a1a1a" stroke-width="2"/>

    <text x="180" y="80" fill="#666" font-size="11" text-anchor="middle">ДРАФТ · ВТБ · ПЕТРОВ</text>

    <line x1="50" y1="100" x2="310" y2="100" stroke="#222" stroke-width="1"/>

    <text x="60" y="125" fill="#888" font-size="11">Тема:</text>
    <text x="60" y="143" fill="#ddd" font-size="12">Заявка №2024/847 · продление</text>

    <line x1="50" y1="160" x2="310" y2="160" stroke="#222" stroke-width="1"/>

    <text x="60" y="185" fill="#ddd" font-size="12">Добрый день, Анна!</text>

    <text x="60" y="210" fill="#ddd" font-size="12">По заявке клиента Петров —</text>
    <text x="60" y="226" fill="#ddd" font-size="12">прошу продлить срок подачи</text>
    <text x="60" y="242" fill="#ddd" font-size="12">документов до 20.05.</text>

    <text x="60" y="265" fill="#ddd" font-size="12">Клиент дозаказывает выписки</text>
    <text x="60" y="281" fill="#ddd" font-size="12">из ФНС, ожидаем завтра.</text>

    <text x="60" y="304" fill="#ddd" font-size="12">Спасибо.</text>

    <line x1="50" y1="320" x2="310" y2="320" stroke="#222" stroke-width="1"/>

    <text x="65" y="345" fill="#7ad77a" font-size="11">✓ стиль 92%</text>
    <text x="180" y="345" fill="#7ad77a" font-size="11" text-anchor="middle">✓ humanizer</text>
    <text x="295" y="345" fill="#f4b942" font-size="11" text-anchor="end">отправить?</text>
  </g>

  <!-- 8. РАЗБОР PDF + СВЕРКА С ШАБЛОНОМ -->
  <g transform="translate(490,1170)">
    <text x="180" y="-10" fill="#888" font-size="14" text-anchor="middle">Сверка с шаблоном</text>
    <text x="180" y="6" fill="#555" font-size="11" text-anchor="middle">договор vs требования Сбера</text>

    <circle cx="180" cy="200" r="180" fill="#000" stroke="#1a1a1a" stroke-width="2"/>

    <text x="180" y="80" fill="#666" font-size="11" text-anchor="middle">DOGOVOR_ROMASHKA.PDF</text>

    <!-- Match -->
    <rect x="50" y="100" width="260" height="40" rx="8" fill="#0d1f14" stroke="#1f3a2a" stroke-width="1"/>
    <text x="65" y="118" fill="#7ad77a" font-size="11">✓ совпадает с шаблоном Сбера</text>
    <text x="65" y="133" fill="#666" font-size="10">12 из 14 ключевых пунктов</text>

    <!-- Mismatches -->
    <text x="60" y="170" fill="#666" font-size="10" letter-spacing="2">НАЙДЕНЫ РАСХОЖДЕНИЯ</text>

    <!-- Issue 1 -->
    <rect x="50" y="180" width="260" height="50" rx="8" fill="#1a0a0a" stroke="#5a2222" stroke-width="1"/>
    <text x="65" y="200" fill="#e74c3c" font-size="11" font-weight="500">⚠ Срок гарантии · п. 4.2</text>
    <text x="65" y="216" fill="#aaa" font-size="11">в договоре 18 мес, Сбер до 12</text>

    <!-- Issue 2 -->
    <rect x="50" y="240" width="260" height="50" rx="8" fill="#1a1408" stroke="#5a4422" stroke-width="1"/>
    <text x="65" y="260" fill="#f4b942" font-size="11" font-weight="500">⚠ Бенефициар · п. 1.3</text>
    <text x="65" y="276" fill="#aaa" font-size="11">проверить ИНН — есть опечатка</text>

    <!-- Action -->
    <rect x="65" y="305" width="230" height="38" rx="19" fill="#f4b94215" stroke="#f4b942" stroke-width="1"/>
    <text x="180" y="328" fill="#f4b942" font-size="12" text-anchor="middle">скажи «исправь обе»</text>
  </g>

  <!-- 9. ПРОТОКОЛ ВСТРЕЧИ -->
  <g transform="translate(900,1170)">
    <text x="180" y="-10" fill="#888" font-size="14" text-anchor="middle">Итог встречи</text>
    <text x="180" y="6" fill="#555" font-size="11" text-anchor="middle">после звонка автоматом</text>

    <circle cx="180" cy="200" r="180" fill="#000" stroke="#1a1a1a" stroke-width="2"/>

    <text x="180" y="80" fill="#666" font-size="11" text-anchor="middle">17 МАЯ · 11:00 · 22 МИН</text>
    <text x="180" y="102" fill="#ffffff" font-size="14" font-weight="500" text-anchor="middle">Иванов · ООО Альфа-Строй</text>

    <line x1="50" y1="120" x2="310" y2="120" stroke="#222" stroke-width="1"/>

    <text x="60" y="145" fill="#666" font-size="10" letter-spacing="2">САММАРИ</text>
    <text x="60" y="167" fill="#ddd" font-size="11">Обсудили БГ на 7 млн под</text>
    <text x="60" y="183" fill="#ddd" font-size="11">тендер Минстроя. Клиент</text>
    <text x="60" y="199" fill="#ddd" font-size="11">торопится — дедлайн 25.05.</text>

    <text x="60" y="226" fill="#f4b942" font-size="10" letter-spacing="2">ACTION ITEMS</text>

    <text x="60" y="248" fill="#ddd" font-size="11">☐ Я: подобрать банк до 18.05</text>
    <text x="60" y="266" fill="#ddd" font-size="11">☐ Я: ответ Иванову до конца дня</text>
    <text x="60" y="284" fill="#ddd" font-size="11">☐ Иванов: пришлёт выписку ФНС</text>

    <line x1="50" y1="305" x2="310" y2="305" stroke="#222" stroke-width="1"/>

    <text x="180" y="330" fill="#666" font-size="10" text-anchor="middle">сохранено в карточку клиента</text>
    <text x="180" y="350" fill="#7ad77a" font-size="11" text-anchor="middle">+ 3 напоминания</text>
  </g>


  <!-- ╔═════════════════════════════ RANGE 4: ФИНАНСЫ И ТЕНДЕРЫ ═════════════════════════════╗ -->
  <text x="40" y="1640" fill="#f4b942" font-size="14" letter-spacing="3">▸ ФИНАНСЫ И ТЕНДЕРЫ</text>

  <!-- 10. ФИНАНСОВЫЙ ДАШБОРД -->
  <g transform="translate(80,1670)">
    <text x="180" y="-10" fill="#888" font-size="14" text-anchor="middle">Дашборд месяца</text>
    <text x="180" y="6" fill="#555" font-size="11" text-anchor="middle">«сколько заработал в мае»</text>

    <circle cx="180" cy="200" r="180" fill="#000" stroke="#1a1a1a" stroke-width="2"/>

    <text x="180" y="80" fill="#666" font-size="11" text-anchor="middle">МАЙ 2026 · 17 ДНЕЙ ИЗ 31</text>

    <!-- Big sum -->
    <text x="180" y="135" fill="#ffffff" font-size="38" font-weight="200" text-anchor="middle">487 200 ₽</text>
    <text x="180" y="155" fill="#7ad77a" font-size="11" text-anchor="middle">↑ +18% к маю-2025</text>

    <!-- Mini bars -->
    <g transform="translate(60,185)">
      <text x="0" y="0" fill="#666" font-size="10" letter-spacing="2">ПО БАНКАМ</text>
    </g>

    <g transform="translate(60,200)">
      <text x="0" y="15" fill="#aaa" font-size="11">Сбер</text>
      <rect x="60" y="6" width="160" height="10" rx="5" fill="#1a1a1a"/>
      <rect x="60" y="6" width="115" height="10" rx="5" fill="#7ad77a"/>
      <text x="230" y="15" fill="#fff" font-size="10">215 т</text>
    </g>

    <g transform="translate(60,222)">
      <text x="0" y="15" fill="#aaa" font-size="11">ВТБ</text>
      <rect x="60" y="6" width="160" height="10" rx="5" fill="#1a1a1a"/>
      <rect x="60" y="6" width="78" height="10" rx="5" fill="#f4b942"/>
      <text x="230" y="15" fill="#fff" font-size="10">148 т</text>
    </g>

    <g transform="translate(60,244)">
      <text x="0" y="15" fill="#aaa" font-size="11">Альфа</text>
      <rect x="60" y="6" width="160" height="10" rx="5" fill="#1a1a1a"/>
      <rect x="60" y="6" width="48" height="10" rx="5" fill="#3aa9ff"/>
      <text x="230" y="15" fill="#fff" font-size="10">92 т</text>
    </g>

    <g transform="translate(60,266)">
      <text x="0" y="15" fill="#aaa" font-size="11">ПСБ</text>
      <rect x="60" y="6" width="160" height="10" rx="5" fill="#1a1a1a"/>
      <rect x="60" y="6" width="20" height="10" rx="5" fill="#888"/>
      <text x="230" y="15" fill="#fff" font-size="10">32 т</text>
    </g>

    <line x1="50" y1="305" x2="310" y2="305" stroke="#222" stroke-width="1"/>
    <text x="180" y="330" fill="#666" font-size="11" text-anchor="middle">прогноз до конца месяца</text>
    <text x="180" y="352" fill="#f4b942" font-size="15" text-anchor="middle">~ 890 000 ₽</text>
  </g>

  <!-- 11. ТЕНДЕР ДЕТАЛЬНО -->
  <g transform="translate(490,1670)">
    <text x="180" y="-10" fill="#888" font-size="14" text-anchor="middle">Карточка тендера</text>
    <text x="180" y="6" fill="#555" font-size="11" text-anchor="middle">из tender-monitor</text>

    <circle cx="180" cy="200" r="180" fill="#000" stroke="#1a1a1a" stroke-width="2"/>

    <text x="180" y="80" fill="#666" font-size="11" text-anchor="middle">44-ФЗ · ЗАКУПКА №0173</text>

    <!-- Sum -->
    <text x="180" y="125" fill="#ffffff" font-size="32" font-weight="200" text-anchor="middle">8 400 000 ₽</text>
    <text x="180" y="146" fill="#aaa" font-size="11" text-anchor="middle">Минстрой Республики Татарстан</text>

    <line x1="60" y1="165" x2="300" y2="165" stroke="#222" stroke-width="1"/>

    <!-- Details -->
    <text x="60" y="190" fill="#666" font-size="11">тип БГ</text>
    <text x="300" y="190" fill="#fff" font-size="11" text-anchor="end">исполнения · 7%</text>

    <text x="60" y="213" fill="#666" font-size="11">подача</text>
    <text x="300" y="213" fill="#f4b942" font-size="11" text-anchor="end">до 23.05 · 6 дней</text>

    <text x="60" y="236" fill="#666" font-size="11">победитель</text>
    <text x="300" y="236" fill="#fff" font-size="11" text-anchor="end">Строй-Сервис</text>

    <text x="60" y="259" fill="#666" font-size="11">прогноз</text>
    <text x="300" y="259" fill="#7ad77a" font-size="11" text-anchor="end">подходит, 87%</text>

    <line x1="60" y1="280" x2="300" y2="280" stroke="#222" stroke-width="1"/>

    <!-- Actions -->
    <rect x="60" y="295" width="110" height="38" rx="19" fill="#1a1a1a" stroke="#333" stroke-width="1"/>
    <text x="115" y="318" fill="#aaa" font-size="11" text-anchor="middle">в архив</text>

    <rect x="190" y="295" width="110" height="38" rx="19" fill="#f4b942"/>
    <text x="245" y="318" fill="#000" font-size="11" text-anchor="middle" font-weight="600">связаться</text>

    <text x="180" y="358" fill="#666" font-size="11" text-anchor="middle">контакты на ЕИС</text>
  </g>

  <!-- 12. ПОДТВЕРЖДЕНИЕ ДЕЙСТВИЯ -->
  <g transform="translate(900,1670)">
    <text x="180" y="-10" fill="#888" font-size="14" text-anchor="middle">Подтверждение</text>
    <text x="180" y="6" fill="#555" font-size="11" text-anchor="middle">критичные действия — голосом «да»</text>

    <circle cx="180" cy="200" r="180" fill="#000" stroke="#1a1a1a" stroke-width="2"/>

    <!-- Warning icon -->
    <circle cx="180" cy="115" r="32" fill="none" stroke="#f4b942" stroke-width="2"/>
    <text x="180" y="128" fill="#f4b942" font-size="36" text-anchor="middle" font-weight="300">!</text>

    <!-- Question -->
    <text x="180" y="190" fill="#ffffff" font-size="16" font-weight="500" text-anchor="middle">Отправить письмо в ВТБ?</text>

    <text x="180" y="220" fill="#aaa" font-size="12" text-anchor="middle">от: a.morozov@bg-agent.ru</text>
    <text x="180" y="238" fill="#aaa" font-size="12" text-anchor="middle">к: anna.k@vtb.ru</text>
    <text x="180" y="256" fill="#aaa" font-size="12" text-anchor="middle">тема: заявка №2024/847</text>

    <line x1="60" y1="280" x2="300" y2="280" stroke="#222" stroke-width="1"/>

    <text x="180" y="305" fill="#666" font-size="11" text-anchor="middle">скажи «да» или нажми</text>

    <rect x="80" y="320" width="80" height="40" rx="20" fill="#1a1a1a" stroke="#333" stroke-width="1"/>
    <text x="120" y="345" fill="#aaa" font-size="12" text-anchor="middle">нет</text>

    <rect x="200" y="320" width="80" height="40" rx="20" fill="#7ad77a"/>
    <text x="240" y="345" fill="#000" font-size="12" text-anchor="middle" font-weight="600">да</text>
  </g>

  <!-- ===== FOOTER ===== -->
  <g transform="translate(80, 2200)">
    <text x="0" y="0" fill="#666" font-size="13">ЛОГИКА БИЗНЕС-ЭКРАНОВ:</text>
    <text x="0" y="22" fill="#aaa" font-size="12">• Деньги — самым большим шрифтом. Что зарабатываешь, что комиссия, что сумма БГ — это главное.</text>
    <text x="0" y="42" fill="#aaa" font-size="12">• Срочность цветом — красный «горит», янтарь «скоро», зелёный «ок», серый «отложено».</text>
    <text x="0" y="62" fill="#aaa" font-size="12">• На критичных действиях (отправка письма, оплата, удаление) — отдельный экран подтверждения с «да/нет».</text>
    <text x="0" y="82" fill="#aaa" font-size="12">• Активный шаг любого процесса всегда подсвечен янтарём — глаз сразу видит «где сейчас всё».</text>
    <text x="0" y="102" fill="#aaa" font-size="12">• Числа округлены до читаемых форм (215 т вместо 215 487 — для glanceable).</text>
  </g>
</svg>
