<svg xmlns="http://www.w3.org/2000/svg" viewBox="0 0 1500 2400" font-family="-apple-system, 'SF Pro Display', 'Helvetica Neue', Arial, sans-serif">
  <rect width="1500" height="2400" fill="#0a0a0a"/>

  <text x="750" y="50" fill="#888" font-size="22" text-anchor="middle" letter-spacing="2">ОФИСНЫЙ AI-ХАБ · ГАЛЕРЕЯ #4 · ПОВСЕДНЕВНАЯ ЖИЗНЬ</text>
  <text x="750" y="78" fill="#555" font-size="13" text-anchor="middle">12 экранов: ритуалы, семья, здоровье, хобби, дом, личные финансы</text>

  <!-- ╔═════════════════════════════ RANGE 1: УТРО И ДЕНЬ ═════════════════════════════╗ -->
  <text x="40" y="140" fill="#f4b942" font-size="14" letter-spacing="3">▸ УТРО И НАСТРОЕНИЕ ДНЯ</text>

  <!-- 1. УТРЕННИЙ РИТУАЛ -->
  <g transform="translate(80,170)">
    <text x="180" y="-10" fill="#888" font-size="14" text-anchor="middle">Утренний ритуал</text>
    <text x="180" y="6" fill="#555" font-size="11" text-anchor="middle">в 7:30 сам встречает</text>

    <circle cx="180" cy="200" r="180" fill="#000" stroke="#1a1a1a" stroke-width="2"/>

    <!-- Soft sunrise gradient -->
    <defs>
      <radialGradient id="sunrise" cx="0.5" cy="0.8" r="0.6">
        <stop offset="0%" stop-color="#f4b942" stop-opacity="0.25"/>
        <stop offset="60%" stop-color="#e09020" stop-opacity="0.1"/>
        <stop offset="100%" stop-color="#000" stop-opacity="0"/>
      </radialGradient>
      <clipPath id="circle1c"><circle cx="180" cy="200" r="178"/></clipPath>
    </defs>
    <rect x="0" y="20" width="360" height="360" fill="url(#sunrise)" clip-path="url(#circle1c)"/>

    <!-- Sun -->
    <circle cx="180" cy="105" r="22" fill="#f4b942" opacity="0.9"/>

    <text x="180" y="170" fill="#ffffff" font-size="24" font-weight="300" text-anchor="middle">Доброе утро,</text>
    <text x="180" y="200" fill="#ffffff" font-size="24" font-weight="300" text-anchor="middle">Андрей</text>

    <line x1="120" y1="225" x2="240" y2="225" stroke="#333" stroke-width="1"/>

    <text x="180" y="252" fill="#aaa" font-size="13" text-anchor="middle">сегодня вторник, 17 мая</text>
    <text x="180" y="273" fill="#aaa" font-size="13" text-anchor="middle">+18° · ясно</text>
    <text x="180" y="294" fill="#888" font-size="11" text-anchor="middle">восход 04:32 · закат 20:51</text>

    <!-- Quote -->
    <text x="180" y="335" fill="#666" font-size="11" text-anchor="middle" font-style="italic">«начинай с малого,</text>
    <text x="180" y="352" fill="#666" font-size="11" text-anchor="middle" font-style="italic">но начинай»</text>
  </g>

  <!-- 2. ДЫХАНИЕ / МЕДИТАЦИЯ -->
  <g transform="translate(490,170)">
    <text x="180" y="-10" fill="#888" font-size="14" text-anchor="middle">Дыхание</text>
    <text x="180" y="6" fill="#555" font-size="11" text-anchor="middle">круг дышит вместе с тобой</text>

    <circle cx="180" cy="200" r="180" fill="#000" stroke="#1a1a1a" stroke-width="2"/>

    <!-- Breathing circles (concentric) -->
    <defs>
      <radialGradient id="breath" cx="0.5" cy="0.5" r="0.5">
        <stop offset="0%" stop-color="#3aa9ff" stop-opacity="0.5"/>
        <stop offset="100%" stop-color="#3aa9ff" stop-opacity="0"/>
      </radialGradient>
    </defs>
    <circle cx="180" cy="200" r="120" fill="url(#breath)"/>
    <circle cx="180" cy="200" r="80" fill="#1a4a6a" opacity="0.6"/>
    <circle cx="180" cy="200" r="55" fill="#3aa9ff" opacity="0.9"/>

    <!-- Instruction inside -->
    <text x="180" y="195" fill="#ffffff" font-size="18" font-weight="300" text-anchor="middle">вдох</text>
    <text x="180" y="218" fill="#fff" font-size="11" text-anchor="middle" opacity="0.7">через нос</text>

    <text x="180" y="335" fill="#aaa" font-size="13" text-anchor="middle">3 / 10 циклов</text>
    <text x="180" y="358" fill="#666" font-size="11" text-anchor="middle">5 секунд вдох · 5 выдох</text>
  </g>

  <!-- 3. ДНЕВНИК НАСТРОЕНИЯ -->
  <g transform="translate(900,170)">
    <text x="180" y="-10" fill="#888" font-size="14" text-anchor="middle">Как ты сегодня?</text>
    <text x="180" y="6" fill="#555" font-size="11" text-anchor="middle">вечером в 21:00</text>

    <circle cx="180" cy="200" r="180" fill="#000" stroke="#1a1a1a" stroke-width="2"/>

    <text x="180" y="100" fill="#ffffff" font-size="18" font-weight="500" text-anchor="middle">оцени день</text>

    <!-- 5 emoji-orbs -->
    <g transform="translate(180,180)">
      <circle cx="-100" cy="0" r="22" fill="#1a1a1a" stroke="#333" stroke-width="1"/>
      <text x="-100" y="6" font-size="22" text-anchor="middle">😞</text>

      <circle cx="-50" cy="0" r="22" fill="#1a1a1a" stroke="#333" stroke-width="1"/>
      <text x="-50" y="6" font-size="22" text-anchor="middle">😕</text>

      <circle cx="0" cy="0" r="22" fill="#1a1a1a" stroke="#333" stroke-width="1"/>
      <text x="0" y="6" font-size="22" text-anchor="middle">😐</text>

      <circle cx="50" cy="0" r="28" fill="#f4b942"/>
      <text x="50" y="8" font-size="26" text-anchor="middle">🙂</text>

      <circle cx="100" cy="0" r="22" fill="#1a1a1a" stroke="#333" stroke-width="1"/>
      <text x="100" y="6" font-size="22" text-anchor="middle">😄</text>
    </g>

    <line x1="60" y1="240" x2="300" y2="240" stroke="#222" stroke-width="1"/>

    <!-- Mini week chart -->
    <text x="180" y="265" fill="#666" font-size="10" text-anchor="middle" letter-spacing="2">НЕДЕЛЯ</text>
    <g transform="translate(80,290)">
      <rect x="0" y="20" width="14" height="20" rx="3" fill="#7ad77a"/>
      <text x="7" y="55" fill="#666" font-size="9" text-anchor="middle">пн</text>

      <rect x="30" y="10" width="14" height="30" rx="3" fill="#7ad77a"/>
      <text x="37" y="55" fill="#666" font-size="9" text-anchor="middle">вт</text>

      <rect x="60" y="25" width="14" height="15" rx="3" fill="#f4b942"/>
      <text x="67" y="55" fill="#666" font-size="9" text-anchor="middle">ср</text>

      <rect x="90" y="5" width="14" height="35" rx="3" fill="#7ad77a"/>
      <text x="97" y="55" fill="#666" font-size="9" text-anchor="middle">чт</text>

      <rect x="120" y="15" width="14" height="25" rx="3" fill="#f4b942"/>
      <text x="127" y="55" fill="#666" font-size="9" text-anchor="middle">пт</text>

      <rect x="150" y="0" width="14" height="40" rx="3" fill="#7ad77a"/>
      <text x="157" y="55" fill="#666" font-size="9" text-anchor="middle">сб</text>

      <rect x="180" y="0" width="14" height="40" rx="3" fill="#f4b942" opacity="0.4"/>
      <text x="187" y="55" fill="#f4b942" font-size="9" text-anchor="middle">вс</text>
    </g>
  </g>


  <!-- ╔═════════════════════════════ RANGE 2: СЕМЬЯ И ЛЮДИ ═════════════════════════════╗ -->
  <text x="40" y="640" fill="#f4b942" font-size="14" letter-spacing="3">▸ СЕМЬЯ И ЛЮДИ</text>

  <!-- 4. ДНИ РОЖДЕНИЯ -->
  <g transform="translate(80,670)">
    <text x="180" y="-10" fill="#888" font-size="14" text-anchor="middle">Ближайшие даты</text>
    <text x="180" y="6" fill="#555" font-size="11" text-anchor="middle">дни рождения и годовщины</text>

    <circle cx="180" cy="200" r="180" fill="#000" stroke="#1a1a1a" stroke-width="2"/>

    <text x="180" y="80" fill="#666" font-size="11" text-anchor="middle">ВПЕРЕДИ 30 ДНЕЙ</text>

    <!-- Big upcoming -->
    <rect x="50" y="100" width="260" height="80" rx="14" fill="#1a0d0d" stroke="#5a2222" stroke-width="1"/>
    <text x="65" y="125" fill="#e74c3c" font-size="10" letter-spacing="2">ЧЕРЕЗ 3 ДНЯ · 20 МАЯ</text>
    <text x="65" y="148" fill="#ffffff" font-size="18" font-weight="500">Мама · 65 лет</text>
    <text x="65" y="170" fill="#aaa" font-size="11">юбилей · идей подарка пока 0</text>

    <!-- List -->
    <text x="60" y="210" fill="#aaa" font-size="11">🎂 23 мая · Сергей (брат)</text>
    <text x="60" y="232" fill="#aaa" font-size="11">💍 02 июн · 7 лет с Машей</text>
    <text x="60" y="254" fill="#aaa" font-size="11">🎂 14 июн · клиент Петров С.</text>
    <text x="60" y="276" fill="#aaa" font-size="11">🎂 28 июн · дочь Аня · 8 лет</text>

    <line x1="50" y1="298" x2="310" y2="298" stroke="#222" stroke-width="1"/>

    <text x="180" y="325" fill="#f4b942" font-size="12" text-anchor="middle">скажи «подарок маме»</text>
    <text x="180" y="345" fill="#666" font-size="10" text-anchor="middle">подскажу варианты</text>
  </g>

  <!-- 5. ГДЕ СЕМЬЯ -->
  <g transform="translate(490,670)">
    <text x="180" y="-10" fill="#888" font-size="14" text-anchor="middle">Где семья</text>
    <text x="180" y="6" fill="#555" font-size="11" text-anchor="middle">шеринг геолокации</text>

    <circle cx="180" cy="200" r="180" fill="#000" stroke="#1a1a1a" stroke-width="2"/>

    <!-- Map background -->
    <defs>
      <pattern id="grid2" x="0" y="0" width="18" height="18" patternUnits="userSpaceOnUse">
        <path d="M 18 0 L 0 0 0 18" fill="none" stroke="#181818" stroke-width="0.5"/>
      </pattern>
      <clipPath id="circle2c"><circle cx="180" cy="200" r="178"/></clipPath>
    </defs>
    <rect x="0" y="20" width="360" height="360" fill="url(#grid2)" clip-path="url(#circle2c)"/>

    <g clip-path="url(#circle2c)" stroke="#222" stroke-width="2" fill="none">
      <circle cx="180" cy="200" r="80"/>
      <circle cx="180" cy="200" r="140"/>
      <line x1="40" y1="200" x2="320" y2="200"/>
      <line x1="180" y1="60" x2="180" y2="340"/>
    </g>

    <!-- People dots -->
    <!-- Me (center) -->
    <circle cx="180" cy="200" r="11" fill="#f4b942"/>
    <text x="180" y="225" fill="#f4b942" font-size="10" text-anchor="middle">ты · офис</text>

    <!-- Wife -->
    <circle cx="260" cy="155" r="9" fill="#e74a8e"/>
    <text x="260" y="178" fill="#e74a8e" font-size="10" text-anchor="middle">Маша</text>
    <text x="260" y="190" fill="#888" font-size="9" text-anchor="middle">кафе</text>

    <!-- Daughter -->
    <circle cx="130" cy="280" r="9" fill="#7ad77a"/>
    <text x="130" y="303" fill="#7ad77a" font-size="10" text-anchor="middle">Аня</text>
    <text x="130" y="315" fill="#888" font-size="9" text-anchor="middle">школа</text>

    <!-- Mom -->
    <circle cx="80" cy="120" r="9" fill="#3aa9ff"/>
    <text x="80" y="143" fill="#3aa9ff" font-size="10" text-anchor="middle">мама</text>
    <text x="80" y="155" fill="#888" font-size="9" text-anchor="middle">дома</text>

    <text x="180" y="365" fill="#666" font-size="11" text-anchor="middle">все на своих местах</text>
  </g>

  <!-- 6. ПОДАРОК — ИДЕИ -->
  <g transform="translate(900,670)">
    <text x="180" y="-10" fill="#888" font-size="14" text-anchor="middle">Подарок маме</text>
    <text x="180" y="6" fill="#555" font-size="11" text-anchor="middle">DeepSeek подбирает варианты</text>

    <circle cx="180" cy="200" r="180" fill="#000" stroke="#1a1a1a" stroke-width="2"/>

    <text x="180" y="80" fill="#666" font-size="11" text-anchor="middle">ЮБИЛЕЙ · 65 ЛЕТ · 20 МАЯ</text>

    <text x="60" y="115" fill="#aaa" font-size="11">учитываю: любит сад, чай,</text>
    <text x="60" y="131" fill="#aaa" font-size="11">читает Акунина, бюджет ~15т</text>

    <line x1="50" y1="150" x2="310" y2="150" stroke="#222" stroke-width="1"/>

    <!-- Ideas -->
    <text x="60" y="175" fill="#f4b942" font-size="13">1.</text>
    <text x="80" y="175" fill="#ffffff" font-size="13" font-weight="500">Набор китайского чая</text>
    <text x="80" y="190" fill="#888" font-size="10">«Тиху Хуэй» · 6 800 ₽ · Те-Тэ</text>

    <text x="60" y="220" fill="#f4b942" font-size="13">2.</text>
    <text x="80" y="220" fill="#ffffff" font-size="13" font-weight="500">Складной садовый стол</text>
    <text x="80" y="235" fill="#888" font-size="10">тиковое дерево · 12 400 ₽ · OZON</text>

    <text x="60" y="265" fill="#f4b942" font-size="13">3.</text>
    <text x="80" y="265" fill="#ffffff" font-size="13" font-weight="500">Подарочный сет «Акунин»</text>
    <text x="80" y="280" fill="#888" font-size="10">3 новых романа · 4 200 ₽ · Лабиринт</text>

    <line x1="50" y1="300" x2="310" y2="300" stroke="#222" stroke-width="1"/>

    <text x="180" y="325" fill="#666" font-size="11" text-anchor="middle">скажи номер чтобы заказать</text>
    <text x="180" y="350" fill="#f4b942" font-size="11" text-anchor="middle">или «ещё варианты»</text>
  </g>


  <!-- ╔═════════════════════════════ RANGE 3: ДОМ И БЫТ ═════════════════════════════╗ -->
  <text x="40" y="1140" fill="#f4b942" font-size="14" letter-spacing="3">▸ ДОМ И БЫТ</text>

  <!-- 7. СПИСОК ПОКУПОК -->
  <g transform="translate(80,1170)">
    <text x="180" y="-10" fill="#888" font-size="14" text-anchor="middle">Список покупок</text>
    <text x="180" y="6" fill="#555" font-size="11" text-anchor="middle">диктуешь — он собирает</text>

    <circle cx="180" cy="200" r="180" fill="#000" stroke="#1a1a1a" stroke-width="2"/>

    <text x="180" y="80" fill="#666" font-size="11" text-anchor="middle">К ВЕЧЕРУ · 9 ПОЗИЦИЙ</text>

    <line x1="50" y1="100" x2="310" y2="100" stroke="#222" stroke-width="1"/>

    <g font-size="13" fill="#ddd">
      <text x="65" y="125">☐ молоко 2.5%</text>
      <text x="65" y="148">☐ хлеб серый</text>
      <text x="65" y="171">☑ <tspan fill="#666" text-decoration="line-through">картошка 2 кг</tspan></text>
      <text x="65" y="194">☐ яйца С1</text>
      <text x="65" y="217">☐ кофе зерно</text>
      <text x="65" y="240">☐ зубная паста</text>
      <text x="65" y="263">☐ корм коту</text>
      <text x="65" y="286">☑ <tspan fill="#666" text-decoration="line-through">шампунь</tspan></text>
    </g>

    <line x1="50" y1="305" x2="310" y2="305" stroke="#222" stroke-width="1"/>

    <text x="180" y="330" fill="#666" font-size="11" text-anchor="middle">по пути домой — Пятёрочка</text>
    <text x="180" y="350" fill="#f4b942" font-size="11" text-anchor="middle">ориентир: ~1 800 ₽</text>
  </g>

  <!-- 8. РЕЦЕПТ ПОШАГОВО -->
  <g transform="translate(490,1170)">
    <text x="180" y="-10" fill="#888" font-size="14" text-anchor="middle">Готовлю по рецепту</text>
    <text x="180" y="6" fill="#555" font-size="11" text-anchor="middle">«паста карбонара»</text>

    <circle cx="180" cy="200" r="180" fill="#000" stroke="#1a1a1a" stroke-width="2"/>

    <text x="180" y="80" fill="#ffffff" font-size="15" font-weight="500" text-anchor="middle">Паста карбонара</text>
    <text x="180" y="100" fill="#666" font-size="11" text-anchor="middle">шаг 4 из 7</text>

    <!-- Progress dots -->
    <g transform="translate(180,118)">
      <circle cx="-60" cy="0" r="5" fill="#7ad77a"/>
      <circle cx="-40" cy="0" r="5" fill="#7ad77a"/>
      <circle cx="-20" cy="0" r="5" fill="#7ad77a"/>
      <circle cx="0" cy="0" r="7" fill="#f4b942"/>
      <circle cx="20" cy="0" r="5" fill="#333"/>
      <circle cx="40" cy="0" r="5" fill="#333"/>
      <circle cx="60" cy="0" r="5" fill="#333"/>
    </g>

    <line x1="50" y1="140" x2="310" y2="140" stroke="#222" stroke-width="1"/>

    <!-- Step text -->
    <text x="180" y="180" fill="#ddd" font-size="14" text-anchor="middle">Обжарь гуанчале на</text>
    <text x="180" y="200" fill="#ddd" font-size="14" text-anchor="middle">сухой сковороде —</text>
    <text x="180" y="220" fill="#ddd" font-size="14" text-anchor="middle">до прозрачности жира.</text>

    <!-- Timer -->
    <rect x="80" y="245" width="200" height="60" rx="12" fill="#1a1408" stroke="#5a4422" stroke-width="1"/>
    <text x="180" y="270" fill="#f4b942" font-size="11" text-anchor="middle" letter-spacing="2">ТАЙМЕР</text>
    <text x="180" y="295" fill="#ffffff" font-size="22" font-weight="200" text-anchor="middle">3:42</text>

    <text x="180" y="335" fill="#666" font-size="11" text-anchor="middle">«дальше» — следующий шаг</text>
    <text x="180" y="355" fill="#666" font-size="11" text-anchor="middle">«назад» — предыдущий</text>
  </g>

  <!-- 9. УМНЫЙ ДОМ -->
  <g transform="translate(900,1170)">
    <text x="180" y="-10" fill="#888" font-size="14" text-anchor="middle">Дом</text>
    <text x="180" y="6" fill="#555" font-size="11" text-anchor="middle">состояние и управление</text>

    <circle cx="180" cy="200" r="180" fill="#000" stroke="#1a1a1a" stroke-width="2"/>

    <text x="180" y="80" fill="#666" font-size="11" text-anchor="middle">ДОМ · УЛ. ПОБЕДЫ 12</text>

    <!-- Temperature -->
    <text x="180" y="135" fill="#ffffff" font-size="36" font-weight="200" text-anchor="middle">+22°</text>
    <text x="180" y="155" fill="#666" font-size="10" text-anchor="middle">в гостиной · 45% влажность</text>

    <line x1="60" y1="175" x2="300" y2="175" stroke="#222" stroke-width="1"/>

    <!-- Rooms grid -->
    <g transform="translate(180,210)">
      <!-- Living -->
      <g transform="translate(-100,0)">
        <circle r="28" fill="#1a1a1a" stroke="#f4b942" stroke-width="1"/>
        <text y="-5" fill="#f4b942" font-size="11" text-anchor="middle">💡</text>
        <text y="13" fill="#f4b942" font-size="9" text-anchor="middle">3 / 4</text>
        <text y="52" fill="#aaa" font-size="10" text-anchor="middle">гостиная</text>
      </g>

      <!-- Kitchen -->
      <g transform="translate(-30,0)">
        <circle r="28" fill="#1a1a1a" stroke="#333" stroke-width="1"/>
        <text y="2" fill="#666" font-size="12" text-anchor="middle">🌑</text>
        <text y="52" fill="#666" font-size="10" text-anchor="middle">кухня</text>
      </g>

      <!-- Bedroom -->
      <g transform="translate(40,0)">
        <circle r="28" fill="#1a1a1a" stroke="#333" stroke-width="1"/>
        <text y="2" fill="#666" font-size="12" text-anchor="middle">🌑</text>
        <text y="52" fill="#666" font-size="10" text-anchor="middle">спальня</text>
      </g>

      <!-- Office -->
      <g transform="translate(110,0)">
        <circle r="28" fill="#1a1a1a" stroke="#7ad77a" stroke-width="1"/>
        <text y="2" fill="#7ad77a" font-size="11" text-anchor="middle">❄</text>
        <text y="52" fill="#7ad77a" font-size="9" text-anchor="middle">21°</text>
        <text y="68" fill="#aaa" font-size="10" text-anchor="middle">кабинет</text>
      </g>
    </g>

    <line x1="60" y1="320" x2="300" y2="320" stroke="#222" stroke-width="1"/>
    <text x="180" y="345" fill="#7ad77a" font-size="11" text-anchor="middle">✓ дверь закрыта · сигнализация</text>
  </g>


  <!-- ╔═════════════════════════════ RANGE 4: ХОББИ И ЛИЧНЫЕ ФИНАНСЫ ═════════════════════════════╗ -->
  <text x="40" y="1640" fill="#f4b942" font-size="14" letter-spacing="3">▸ ХОББИ · ЛИЧНЫЕ ФИНАНСЫ · АВТО</text>

  <!-- 10. КНИГА -->
  <g transform="translate(80,1670)">
    <text x="180" y="-10" fill="#888" font-size="14" text-anchor="middle">На чём остановился</text>
    <text x="180" y="6" fill="#555" font-size="11" text-anchor="middle">книги, подкасты, видео</text>

    <circle cx="180" cy="200" r="180" fill="#000" stroke="#1a1a1a" stroke-width="2"/>

    <text x="180" y="80" fill="#666" font-size="11" text-anchor="middle" letter-spacing="2">ЧИТАЮ СЕЙЧАС</text>

    <!-- Book "cover" -->
    <rect x="125" y="100" width="110" height="150" rx="6" fill="#2a1a3a" stroke="#444" stroke-width="1"/>
    <text x="180" y="160" fill="#ffd" font-size="11" text-anchor="middle" font-weight="500">САПИЕНС</text>
    <text x="180" y="180" fill="#ddd" font-size="9" text-anchor="middle">Юваль</text>
    <text x="180" y="195" fill="#ddd" font-size="9" text-anchor="middle">Ной Харари</text>

    <!-- Progress bar -->
    <rect x="80" y="270" width="200" height="6" rx="3" fill="#1a1a1a"/>
    <rect x="80" y="270" width="124" height="6" rx="3" fill="#f4b942"/>
    <text x="80" y="294" fill="#aaa" font-size="11">стр 187 / 302</text>
    <text x="280" y="294" fill="#f4b942" font-size="11" text-anchor="end">62%</text>

    <text x="180" y="325" fill="#aaa" font-size="11" text-anchor="middle">читаешь 14 дней</text>
    <text x="180" y="345" fill="#666" font-size="10" text-anchor="middle">по ~13 страниц в день</text>
  </g>

  <!-- 11. ЛИЧНЫЕ ФИНАНСЫ -->
  <g transform="translate(490,1670)">
    <text x="180" y="-10" fill="#888" font-size="14" text-anchor="middle">Личные расходы</text>
    <text x="180" y="6" fill="#555" font-size="11" text-anchor="middle">«потратил 2т на обед»</text>

    <circle cx="180" cy="200" r="180" fill="#000" stroke="#1a1a1a" stroke-width="2"/>

    <text x="180" y="80" fill="#666" font-size="11" text-anchor="middle">МАЙ · 17 ДНЕЙ</text>

    <!-- Spent so far -->
    <text x="180" y="125" fill="#ffffff" font-size="32" font-weight="200" text-anchor="middle">47 280 ₽</text>
    <text x="180" y="145" fill="#666" font-size="11" text-anchor="middle">из бюджета 80 000 ₽</text>

    <!-- Budget progress -->
    <rect x="60" y="160" width="240" height="8" rx="4" fill="#1a1a1a"/>
    <rect x="60" y="160" width="142" height="8" rx="4" fill="#f4b942"/>
    <text x="60" y="183" fill="#666" font-size="10">59%</text>
    <text x="300" y="183" fill="#7ad77a" font-size="10" text-anchor="end">осталось 32 720 ₽</text>

    <line x1="50" y1="200" x2="310" y2="200" stroke="#222" stroke-width="1"/>

    <!-- Categories -->
    <g font-size="11">
      <text x="60" y="225" fill="#aaa">🍽 еда</text>
      <text x="300" y="225" fill="#fff" text-anchor="end">18 400 ₽</text>

      <text x="60" y="248" fill="#aaa">🚗 транспорт</text>
      <text x="300" y="248" fill="#fff" text-anchor="end">11 200 ₽</text>

      <text x="60" y="271" fill="#aaa">📺 подписки</text>
      <text x="300" y="271" fill="#fff" text-anchor="end">2 580 ₽</text>

      <text x="60" y="294" fill="#aaa">🏠 коммуналка</text>
      <text x="300" y="294" fill="#fff" text-anchor="end">8 100 ₽</text>

      <text x="60" y="317" fill="#aaa">🎁 другое</text>
      <text x="300" y="317" fill="#fff" text-anchor="end">7 000 ₽</text>
    </g>

    <text x="180" y="358" fill="#666" font-size="11" text-anchor="middle">прогноз до конца месяца — впишемся</text>
  </g>

  <!-- 12. АВТО -->
  <g transform="translate(900,1670)">
    <text x="180" y="-10" fill="#888" font-size="14" text-anchor="middle">Машина</text>
    <text x="180" y="6" fill="#555" font-size="11" text-anchor="middle">где припарковал и состояние</text>

    <circle cx="180" cy="200" r="180" fill="#000" stroke="#1a1a1a" stroke-width="2"/>

    <text x="180" y="80" fill="#666" font-size="11" text-anchor="middle">TOYOTA CAMRY · A123БВ77</text>

    <!-- Fuel ring -->
    <circle cx="180" cy="170" r="42" fill="none" stroke="#222" stroke-width="6"/>
    <circle cx="180" cy="170" r="42" fill="none" stroke="#f4b942" stroke-width="6"
            stroke-dasharray="180 84" stroke-linecap="round"
            transform="rotate(-90 180 170)"/>
    <text x="180" y="170" fill="#ffffff" font-size="22" font-weight="300" text-anchor="middle">68%</text>
    <text x="180" y="190" fill="#666" font-size="10" text-anchor="middle">~340 км</text>

    <text x="180" y="234" fill="#aaa" font-size="11" text-anchor="middle" letter-spacing="2">ТОПЛИВО</text>

    <line x1="60" y1="252" x2="300" y2="252" stroke="#222" stroke-width="1"/>

    <!-- Parking -->
    <text x="60" y="278" fill="#666" font-size="10" letter-spacing="2">ПРИПАРКОВАЛ</text>
    <text x="60" y="299" fill="#ddd" font-size="12">📍 Тверская 22, паркинг -2</text>
    <text x="60" y="316" fill="#888" font-size="10">место B-47 · оплачено до 18:00</text>

    <line x1="60" y1="328" x2="300" y2="328" stroke="#222" stroke-width="1"/>

    <text x="60" y="350" fill="#f4b942" font-size="11">⚠ ТО через 1 200 км</text>
  </g>

  <!-- ===== FOOTER ===== -->
  <g transform="translate(80, 2200)">
    <text x="0" y="0" fill="#666" font-size="13">ЭСТЕТИКА ПОВСЕДНЕВНОСТИ:</text>
    <text x="0" y="22" fill="#aaa" font-size="12">• Меньше острых углов и цифр, больше тёплых градиентов (восход на утреннем экране, дыхание).</text>
    <text x="0" y="42" fill="#aaa" font-size="12">• Эмодзи и иконки бытовых сервисов — узнаваемы периферическим зрением.</text>
    <text x="0" y="62" fill="#aaa" font-size="12">• Семейные карточки с цветными точками для каждого человека — сразу видно «кто где».</text>
    <text x="0" y="82" fill="#aaa" font-size="12">• Эмоциональные экраны (дыхание, настроение) — синий вместо янтаря: спокойнее, не «срочно».</text>
    <text x="0" y="102" fill="#aaa" font-size="12">• На повседневных задачах часто появляется «прогресс» — % бюджета, % книги, % дыхания. Это мотивирует.</text>
  </g>
</svg>
